<?xml version="1.0" encoding="UTF-8"?>
<svg xmlns="http://www.w3.org/2000/svg" xmlns:xlink="http://www.w3.org/1999/xlink" viewBox="0 0 30 30">
<g id="surface136247350">
<path style=" stroke:none;fill-rule:nonzero;fill:rgb(0%,0%,0%);fill-opacity:1;" d="M 7 4 C 6.742188 4 6.488281 4.097656 6.292969 4.292969 L 4.292969 6.292969 C 3.902344 6.683594 3.902344 7.316406 4.292969 7.707031 L 11.585938 15 L 4.292969 22.292969 C 3.902344 22.683594 3.902344 23.316406 4.292969 23.707031 L 6.292969 25.707031 C 6.683594 26.097656 7.316406 26.097656 7.707031 25.707031 L 15 18.414062 L 22.292969 25.707031 C 22.683594 26.097656 23.316406 26.097656 23.707031 25.707031 L 25.707031 23.707031 C 26.097656 23.316406 26.097656 22.683594 25.707031 22.292969 L 18.414062 15 L 25.707031 7.707031 C 26.097656 7.316406 26.097656 6.683594 25.707031 6.292969 L 23.707031 4.292969 C 23.316406 3.902344 22.683594 3.902344 22.292969 4.292969 L 15 11.585938 L 7.707031 4.292969 C 7.511719 4.097656 7.257812 4 7 4 Z M 7 4 "/>
</g>
</svg>
