<svg xmlns="http://www.w3.org/2000/svg" version="1.1" xmlns:xlink="http://www.w3.org/1999/xlink" xmlns:svgjs="http://svgjs.com/svgjs" width="187pt" height="175pt"><svg width="187pt" height="175pt" viewBox="0 0 187 175" version="1.1" xmlns="http://www.w3.org/2000/svg">
<g id="SvgjsG1001">
<path fill="#343399" opacity="1.00" d=" M 88.46 0.00 L 98.42 0.00 C 116.27 1.19 133.87 7.14 148.33 17.78 C 171.00 33.95 185.41 60.67 187.00 88.42 L 187.00 175.00 L 151.49 175.00 C 151.23 167.34 151.61 159.63 150.82 152.01 C 150.62 140.84 151.44 129.56 148.98 118.59 C 146.21 104.56 140.12 91.11 131.10 80.00 C 123.70 70.32 113.71 62.96 103.29 56.80 C 96.34 53.22 89.47 48.86 81.86 47.04 C 82.50 52.22 81.99 57.73 82.27 63.06 C 80.12 64.46 77.45 63.24 75.08 63.75 C 61.12 79.22 46.94 94.50 33.04 110.04 C 31.20 111.52 31.40 114.37 29.35 115.58 C 29.20 118.20 29.14 120.84 29.37 123.47 C 29.82 123.85 30.72 124.63 31.17 125.02 C 31.52 128.67 34.83 131.23 37.43 133.52 C 40.54 136.65 44.34 139.03 47.24 142.39 L 48.06 142.55 C 51.05 138.33 55.73 135.83 59.72 132.69 C 65.80 128.87 73.33 127.23 80.39 128.84 C 72.11 144.44 62.29 159.32 54.14 175.00 L 0.00 175.00 L 0.00 88.48 C 1.51 62.35 14.28 37.06 34.81 20.73 C 49.94 8.36 69.03 1.29 88.46 0.00 Z"></path>
</g>
<g id="SvgjsG1000">
<path fill="#f0bf00" opacity="1.00" d=" M 81.86 47.04 C 89.47 48.86 96.34 53.22 103.29 56.80 C 113.71 62.96 123.70 70.32 131.10 80.00 C 140.12 91.11 146.21 104.56 148.98 118.59 C 151.44 129.56 150.62 140.84 150.82 152.01 C 151.61 159.63 151.23 167.34 151.49 175.00 L 54.14 175.00 C 62.29 159.32 72.11 144.44 80.39 128.84 C 73.33 127.23 65.80 128.87 59.72 132.69 C 55.73 135.83 51.05 138.33 48.06 142.55 L 47.24 142.39 C 44.34 139.03 40.54 136.65 37.43 133.52 C 34.83 131.23 31.52 128.67 31.17 125.02 C 30.72 124.63 29.82 123.85 29.37 123.47 C 29.14 120.84 29.20 118.20 29.35 115.58 C 31.40 114.37 31.20 111.52 33.04 110.04 C 46.94 94.50 61.12 79.22 75.08 63.75 C 77.45 63.24 80.12 64.46 82.27 63.06 C 81.99 57.73 82.50 52.22 81.86 47.04 Z"></path>
</g>
</svg><style>@media (prefers-color-scheme: light) { :root { filter: none; } }
</style></svg>
