<?xml version="1.0" encoding="UTF-8" ?>
<!DOCTYPE svg PUBLIC "-//W3C//DTD SVG 1.1//EN" "http://www.w3.org/Graphics/SVG/1.1/DTD/svg11.dtd">
<svg width="1000pt" height="342pt" viewBox="0 0 1000 342" version="1.1" xmlns="http://www.w3.org/2000/svg">
<g id="#25256f58">
<path fill="#25256f" opacity="0.35" d=" M 162.50 0.00 L 181.42 0.00 C 175.87 0.05 170.36 0.60 164.91 1.62 C 153.77 2.54 142.79 4.83 132.04 7.84 C 127.47 9.05 123.14 11.08 118.44 11.79 C 132.10 4.83 147.70 3.27 162.50 0.00 Z" />
<path fill="#25256f" opacity="0.35" d=" M 11.50 117.22 C 13.32 112.74 14.85 108.06 17.75 104.13 C 17.06 106.84 16.04 109.45 14.85 111.98 C 8.58 126.65 4.33 142.18 2.27 158.00 C 1.92 164.22 0.25 170.28 0.00 176.52 L 0.00 157.61 C 2.04 154.52 1.92 150.71 2.83 147.25 C 4.76 136.99 7.73 126.94 11.50 117.22 Z" />
</g>
<g id="#343399ff">
<path fill="#343399" opacity="1.00" d=" M 181.42 0.00 L 198.90 0.00 C 204.53 1.35 210.29 1.88 216.00 2.82 C 223.05 4.27 230.11 5.76 236.99 7.92 C 238.06 8.17 239.14 8.41 240.23 8.65 C 240.34 8.81 240.56 9.13 240.67 9.29 C 260.88 15.38 279.67 25.85 296.39 38.68 C 333.25 67.04 358.46 110.08 365.09 156.12 C 367.03 162.93 366.71 170.04 366.88 177.05 C 367.01 232.03 366.88 287.02 366.94 342.00 L 296.82 342.00 C 296.42 321.34 296.61 300.66 296.25 279.99 C 295.14 271.03 295.95 262.00 295.55 253.01 C 294.78 249.01 294.49 244.95 293.93 240.93 C 289.14 207.43 274.59 175.21 251.93 150.01 C 247.86 144.78 243.01 140.23 237.93 136.01 C 217.59 118.09 193.57 104.83 168.72 94.29 C 166.06 92.98 163.41 91.52 160.40 91.24 C 161.60 96.48 160.45 101.78 161.07 107.06 C 160.41 112.14 160.36 117.30 161.56 122.31 C 160.88 123.05 160.21 123.80 159.53 124.55 C 155.56 124.59 151.58 124.57 147.61 124.43 C 133.89 139.43 120.09 154.38 106.47 169.47 C 99.39 176.43 93.20 184.21 86.45 191.47 C 80.34 197.40 75.07 204.10 69.00 210.06 C 65.52 214.37 61.07 218.46 60.17 224.20 C 59.28 224.72 58.39 225.25 57.49 225.78 C 57.40 230.85 57.30 235.93 57.54 241.01 C 60.25 242.51 61.74 245.16 61.71 248.25 C 67.88 257.66 77.28 264.05 85.57 271.42 C 88.70 273.53 90.66 276.93 93.90 278.87 C 97.58 273.90 102.62 270.18 107.39 266.33 C 113.50 262.41 118.95 257.32 125.88 254.82 C 135.53 250.23 146.47 251.01 156.84 251.53 C 157.26 256.34 153.11 259.47 151.33 263.53 C 136.83 288.57 122.24 313.53 107.62 338.49 C 107.08 339.63 106.61 340.80 106.20 342.00 L 0.00 342.00 L 0.00 176.52 C 0.25 170.28 1.92 164.22 2.27 158.00 C 4.33 142.18 8.58 126.65 14.85 111.98 C 16.04 109.45 17.06 106.84 17.75 104.13 C 26.16 86.69 37.37 70.69 50.61 56.58 C 69.61 36.96 92.91 21.53 118.44 11.79 C 123.14 11.08 127.47 9.05 132.04 7.84 C 142.79 4.83 153.77 2.54 164.91 1.62 C 170.36 0.60 175.87 0.05 181.42 0.00 Z" />
<path fill="#343399" opacity="1.00" d=" M 444.44 99.48 C 454.42 90.33 468.78 87.23 481.97 88.86 C 491.45 90.01 500.12 94.88 506.92 101.45 C 503.03 105.45 499.00 109.30 495.07 113.26 C 488.20 106.75 477.98 105.11 468.96 106.99 C 463.41 108.18 458.10 111.19 454.79 115.87 C 447.83 125.43 447.31 139.32 453.82 149.25 C 456.16 153.18 459.96 156.07 464.20 157.71 C 474.99 161.86 487.98 159.42 496.56 151.69 C 500.59 155.98 504.48 160.40 508.38 164.80 C 500.34 172.72 489.19 176.97 477.98 177.16 C 464.93 177.65 450.63 174.46 441.54 164.44 C 425.76 146.43 427.12 116.03 444.44 99.48 Z" />
<path fill="#343399" opacity="1.00" d=" M 517.31 90.37 C 523.18 90.37 529.05 90.39 534.92 90.36 C 534.96 101.03 534.95 111.71 534.92 122.38 C 539.29 117.00 546.14 114.09 553.03 114.31 C 559.48 114.23 566.44 116.12 570.72 121.25 C 575.54 126.98 576.71 134.78 576.85 142.04 C 576.92 153.05 576.86 164.05 576.88 175.06 C 571.03 175.05 565.20 175.11 559.36 175.02 C 559.36 164.04 559.42 153.06 559.34 142.09 C 559.52 136.65 555.81 130.95 550.12 130.35 C 542.93 128.94 535.51 134.57 535.02 141.90 C 534.53 152.93 534.95 164.00 534.81 175.05 C 528.97 175.05 523.13 175.11 517.29 175.01 C 517.34 146.80 517.30 118.58 517.31 90.37 Z" />
<path fill="#343399" opacity="1.00" d=" M 600.80 118.76 C 608.94 113.47 619.28 112.80 628.61 114.61 C 636.76 116.20 644.28 121.58 647.67 129.26 C 650.73 136.01 650.50 143.67 649.57 150.86 C 634.89 150.92 620.21 150.83 605.53 150.91 C 606.68 155.96 611.06 159.68 616.04 160.69 C 623.27 162.12 631.36 161.24 637.37 156.66 C 640.64 160.33 644.03 163.89 647.16 167.69 C 640.86 173.46 632.30 176.09 623.88 176.29 C 614.15 176.75 603.50 174.71 596.45 167.50 C 589.24 160.42 587.13 149.65 588.24 139.91 C 589.07 131.48 593.62 123.38 600.80 118.76 M 605.55 138.09 C 615.05 138.14 624.56 138.15 634.06 138.08 C 633.51 135.88 632.81 133.53 630.92 132.10 C 623.11 126.01 608.82 127.72 605.55 138.09 Z" />
<path fill="#343399" opacity="1.00" d=" M 673.82 114.77 C 684.96 112.07 697.63 113.76 706.63 121.24 C 703.80 124.92 700.90 128.55 698.03 132.19 C 692.58 128.68 685.78 126.92 679.38 128.45 C 676.94 128.97 674.58 131.26 675.42 133.93 C 676.26 137.11 680.12 137.69 682.91 137.90 C 689.88 138.18 697.24 138.80 703.26 142.70 C 708.75 146.44 710.75 153.69 709.90 160.03 C 708.99 167.50 702.92 173.65 695.84 175.72 C 682.18 179.61 666.67 176.43 655.83 167.17 C 658.33 163.05 660.85 158.93 663.34 154.80 C 670.21 160.22 679.23 163.23 687.97 161.93 C 690.99 161.52 694.48 158.62 692.61 155.32 C 690.21 151.97 685.53 152.29 681.89 151.85 C 675.39 151.35 668.63 149.73 663.49 145.53 C 657.43 140.37 656.35 130.90 660.01 124.06 C 662.85 119.00 668.42 116.25 673.82 114.77 Z" />
<path fill="#343399" opacity="1.00" d=" M 725.97 118.07 C 738.41 111.05 755.60 112.03 766.62 121.40 C 763.69 124.95 760.89 128.60 758.02 132.20 C 752.57 128.66 745.75 126.92 739.36 128.45 C 736.93 128.98 734.59 131.25 735.41 133.91 C 736.26 137.14 740.20 137.70 743.02 137.91 C 749.97 138.18 757.31 138.83 763.30 142.72 C 768.49 146.28 770.56 153.03 770.00 159.08 C 769.49 166.96 763.19 173.61 755.77 175.74 C 742.13 179.60 726.64 176.42 715.83 167.16 C 718.34 163.04 720.85 158.93 723.34 154.81 C 729.97 160.06 738.56 162.95 747.04 162.10 C 750.03 161.79 754.08 159.65 752.92 156.02 C 751.69 152.93 747.87 152.43 744.99 152.12 C 737.47 151.67 729.44 150.44 723.45 145.49 C 715.19 138.47 716.27 123.33 725.97 118.07 Z" />
<path fill="#343399" opacity="1.00" d=" M 430.25 224.76 C 439.12 224.74 448.00 224.75 456.87 224.75 C 456.89 241.12 456.86 257.49 456.89 273.86 C 470.21 257.51 483.27 240.94 496.70 224.68 C 507.52 224.88 518.36 224.62 529.19 224.82 C 513.09 244.25 496.63 263.38 480.41 282.71 C 497.85 302.45 515.17 322.32 532.69 342.00 L 499.23 342.00 C 485.03 325.83 471.05 309.45 456.89 293.24 C 456.86 309.49 456.89 325.75 456.88 342.00 L 430.25 342.00 C 430.25 302.92 430.25 263.84 430.25 224.76 Z" />
<path fill="#343399" opacity="1.00" d=" M 541.37 342.00 C 541.44 302.89 541.23 263.78 541.48 224.68 C 549.69 224.83 557.90 224.71 566.12 224.76 C 566.11 239.85 566.18 254.94 566.08 270.03 C 570.99 263.93 578.18 259.73 586.00 258.86 C 596.17 257.68 607.71 259.24 615.21 266.84 C 622.76 274.46 624.77 285.70 625.13 296.02 C 625.27 311.34 625.14 326.67 625.19 342.00 L 600.62 342.00 C 600.61 327.65 600.65 313.31 600.61 298.96 C 600.67 293.10 598.77 286.65 593.59 283.33 C 586.07 278.62 575.14 280.80 569.90 287.95 C 566.81 291.93 565.91 297.11 565.94 302.04 C 565.93 315.36 565.94 328.68 565.94 342.00 L 541.37 342.00 Z" />
<path fill="#343399" opacity="1.00" d=" M 743.69 224.94 C 751.83 224.93 759.98 224.93 768.12 224.94 C 768.13 263.96 768.12 302.98 768.12 342.00 L 743.69 342.00 C 743.69 302.98 743.68 263.96 743.69 224.94 Z" />
<path fill="#343399" opacity="1.00" d=" M 671.31 259.26 C 680.64 257.03 690.54 257.08 699.85 259.38 C 710.21 261.96 719.61 268.93 724.26 278.66 C 728.87 288.27 728.99 299.39 727.32 309.73 C 726.23 309.96 725.12 310.06 724.01 310.03 C 704.46 309.99 684.91 309.96 665.36 310.04 C 666.93 317.49 673.63 322.77 680.92 324.02 C 690.88 325.73 701.99 324.53 710.18 318.15 C 714.79 323.28 719.43 328.37 723.99 333.54 C 720.11 337.04 715.74 339.99 710.90 342.00 L 665.46 342.00 C 653.36 337.22 644.32 325.99 641.82 313.27 C 639.55 301.80 640.13 289.26 645.78 278.80 C 651.03 269.06 660.57 261.84 671.31 259.26 M 665.44 292.04 C 678.77 292.08 692.09 292.06 705.41 292.04 C 704.95 288.67 703.58 285.28 700.73 283.23 C 694.85 278.85 686.97 277.89 679.90 279.19 C 673.18 280.43 667.44 285.48 665.44 292.04 Z" />
<path fill="#343399" opacity="1.00" d=" M 814.99 260.03 C 824.72 257.33 835.20 257.29 844.98 259.76 C 858.91 263.23 870.69 274.33 874.68 288.15 C 877.29 297.31 877.25 307.24 874.63 316.39 C 871.33 327.80 862.59 337.26 851.76 342.00 L 809.33 342.00 C 798.22 337.27 789.38 327.41 786.19 315.73 C 783.84 307.01 783.80 297.66 786.12 288.93 C 789.81 275.12 801.25 263.84 814.99 260.03 M 824.49 280.68 C 810.09 284.08 805.28 303.46 812.94 315.03 C 818.64 324.94 832.79 326.32 842.15 321.19 C 854.84 313.07 854.75 291.92 842.59 283.34 C 837.34 279.82 830.53 279.39 824.49 280.68 Z" />
<path fill="#343399" opacity="1.00" d=" M 932.44 275.57 C 937.13 274.01 943.09 277.83 942.52 283.06 C 943.05 288.07 937.43 292.11 932.79 290.64 C 929.35 289.90 926.57 286.52 926.95 282.95 C 926.64 279.47 929.28 276.57 932.44 275.57 Z" />
<path fill="#343399" opacity="1.00" d=" M 966.76 301.47 C 972.70 293.94 983.83 292.67 992.18 296.60 C 995.89 298.40 998.49 301.84 1000.00 305.61 L 1000.00 342.00 L 988.00 342.00 C 987.97 333.99 988.05 325.98 987.99 317.97 C 987.98 314.18 986.96 309.60 983.15 307.89 C 979.17 306.25 973.91 306.55 970.89 309.91 C 968.50 312.24 967.39 315.63 967.46 318.93 C 967.44 326.62 967.48 334.31 967.47 342.00 L 953.74 342.00 C 953.74 326.58 953.73 311.16 953.74 295.74 C 957.92 295.73 962.10 295.73 966.29 295.72 C 966.44 297.64 966.59 299.55 966.76 301.47 Z" />
<path fill="#343399" opacity="1.00" d=" M 927.74 295.54 C 932.42 295.53 937.10 295.53 941.79 295.55 C 941.66 311.03 941.77 326.51 941.73 342.00 L 927.74 342.00 C 927.73 326.51 927.73 311.03 927.74 295.54 Z" />
<path fill="#343399" opacity="1.00" d=" M 902.84 331.91 C 905.63 327.18 913.39 326.93 916.31 331.66 C 918.57 334.91 917.43 339.07 915.22 342.00 L 904.24 342.00 C 901.75 339.31 900.83 335.13 902.84 331.91 Z" />
</g>
<g id="#f0bf00ff">
<path fill="#f0bf00" opacity="1.00" d=" M 160.40 91.24 C 163.41 91.52 166.06 92.98 168.72 94.29 C 193.57 104.83 217.59 118.09 237.93 136.01 C 243.01 140.23 247.86 144.78 251.93 150.01 C 274.59 175.21 289.14 207.43 293.93 240.93 C 294.49 244.95 294.78 249.01 295.55 253.01 C 295.95 262.00 295.14 271.03 296.25 279.99 C 296.61 300.66 296.42 321.34 296.82 342.00 L 106.20 342.00 C 106.61 340.80 107.08 339.63 107.62 338.49 C 122.24 313.53 136.83 288.57 151.33 263.53 C 153.11 259.47 157.26 256.34 156.84 251.53 C 146.47 251.01 135.53 250.23 125.88 254.82 C 118.95 257.32 113.50 262.41 107.39 266.33 C 102.62 270.18 97.58 273.90 93.90 278.87 C 90.66 276.93 88.70 273.53 85.57 271.42 C 77.28 264.05 67.88 257.66 61.71 248.25 C 61.74 245.16 60.25 242.51 57.54 241.01 C 57.30 235.93 57.40 230.85 57.49 225.78 C 58.39 225.25 59.28 224.72 60.17 224.20 C 61.07 218.46 65.52 214.37 69.00 210.06 C 75.07 204.10 80.34 197.40 86.45 191.47 C 93.20 184.21 99.39 176.43 106.47 169.47 C 120.09 154.38 133.89 139.43 147.61 124.43 C 151.58 124.57 155.56 124.59 159.53 124.55 C 160.21 123.80 160.88 123.05 161.56 122.31 C 160.36 117.30 160.41 112.14 161.07 107.06 C 160.45 101.78 161.60 96.48 160.40 91.24 Z" />
</g>
</svg>
