<?xml version="1.0" encoding="UTF-8" ?>
<!DOCTYPE svg PUBLIC "-//W3C//DTD SVG 1.1//EN" "http://www.w3.org/Graphics/SVG/1.1/DTD/svg11.dtd">
<svg width="760pt" height="100pt" viewBox="0 0 760 100" version="1.1" xmlns="http://www.w3.org/2000/svg">
<g id="#343399ff">
<path fill="#343399" opacity="1.00" d=" M 46.15 0.00 L 59.04 0.00 C 79.32 2.06 97.44 17.02 103.51 36.44 C 105.70 42.71 106.10 49.40 105.99 55.98 C 105.97 70.32 105.97 84.65 105.99 98.99 C 99.26 99.01 92.52 99.00 85.79 99.00 C 85.68 91.32 85.49 83.65 85.46 75.97 C 85.17 60.47 77.52 45.14 64.85 36.09 C 59.20 31.86 52.78 28.82 46.37 25.95 C 46.40 29.26 46.43 32.57 46.42 35.88 C 45.17 35.83 43.92 35.77 42.67 35.71 C 35.45 43.47 28.44 51.43 21.19 59.16 C 18.86 61.83 15.68 64.85 16.49 68.77 C 17.82 74.21 23.20 76.98 26.87 80.70 C 31.72 75.64 38.31 71.21 45.68 72.69 C 40.61 81.47 35.53 90.25 30.39 99.00 C 20.26 99.00 10.13 99.00 0.00 99.00 L 0.00 48.03 C 0.92 36.93 5.54 26.20 12.89 17.84 C 21.32 8.09 33.39 1.72 46.15 0.00 Z" />
<path fill="#343399" opacity="1.00" d=" M 137.63 35.58 C 146.08 23.07 162.66 18.60 177.00 20.96 C 184.87 22.23 192.00 26.43 197.68 31.92 C 194.15 35.37 190.70 38.87 187.16 42.30 C 179.59 35.40 167.75 34.39 158.66 38.68 C 143.19 46.31 142.36 72.08 157.43 80.56 C 167.36 85.82 180.23 83.67 188.58 76.38 C 192.03 80.24 195.51 84.08 198.96 87.95 C 193.03 93.72 185.25 97.50 177.02 98.48 C 166.72 99.72 155.73 98.61 146.66 93.27 C 139.45 89.10 134.51 81.75 132.07 73.92 C 128.15 61.18 129.85 46.55 137.63 35.58 Z" />
<path fill="#343399" opacity="1.00" d=" M 206.50 22.06 C 211.69 22.06 216.87 22.06 222.06 22.06 C 222.03 31.53 222.14 41.01 222.00 50.48 C 224.99 47.05 228.94 44.37 233.51 43.67 C 240.55 42.51 248.84 43.65 253.71 49.37 C 258.29 54.77 259.18 62.20 259.19 69.02 C 259.18 78.36 259.19 87.71 259.18 97.06 C 254.04 97.06 248.90 97.06 243.75 97.06 C 243.74 88.05 243.76 79.03 243.75 70.02 C 243.76 66.58 243.40 62.74 240.84 60.16 C 236.47 55.67 228.30 56.75 224.61 61.59 C 222.45 64.21 221.94 67.71 221.94 71.01 C 221.92 79.69 221.96 88.37 221.94 97.06 C 216.79 97.06 211.65 97.06 206.50 97.06 C 206.50 72.06 206.50 47.06 206.50 22.06 Z" />
<path fill="#343399" opacity="1.00" d=" M 441.31 22.07 C 446.89 22.05 452.47 22.06 458.06 22.06 C 458.07 32.34 458.05 42.62 458.07 52.90 C 466.38 42.63 474.65 32.33 482.95 22.05 C 489.81 22.08 496.67 22.03 503.53 22.08 C 493.43 34.33 483.04 46.32 472.87 58.50 C 481.87 68.70 490.86 78.91 499.84 89.13 C 502.03 91.71 504.55 94.05 506.28 97.01 C 499.44 97.13 492.60 97.03 485.76 97.07 C 476.51 86.43 467.31 75.75 458.06 65.12 C 458.06 75.76 458.07 86.41 458.06 97.06 C 452.47 97.06 446.89 97.07 441.31 97.05 C 441.31 72.06 441.32 47.06 441.31 22.07 Z" />
<path fill="#343399" opacity="1.00" d=" M 511.50 22.06 C 516.69 22.06 521.87 22.06 527.06 22.06 C 527.03 31.53 527.13 41.01 527.00 50.48 C 533.96 41.83 547.93 40.96 556.63 47.35 C 562.41 52.05 563.99 59.96 564.16 67.03 C 564.23 77.04 564.16 87.05 564.18 97.06 C 559.04 97.06 553.89 97.06 548.75 97.06 C 548.74 88.05 548.76 79.04 548.75 70.03 C 548.73 66.82 548.49 63.30 546.33 60.72 C 542.67 56.19 535.26 56.40 531.07 60.07 C 528.17 62.48 526.97 66.34 526.98 70.00 C 526.87 79.02 526.98 88.04 526.94 97.06 C 521.79 97.06 516.65 97.06 511.50 97.06 C 511.50 72.06 511.50 47.06 511.50 22.06 Z" />
<path fill="#343399" opacity="1.00" d=" M 637.69 22.19 C 642.81 22.19 647.93 22.18 653.06 22.19 C 653.06 47.14 653.06 72.10 653.06 97.06 C 647.93 97.06 642.81 97.06 637.69 97.06 C 637.68 72.10 637.68 47.14 637.69 22.19 Z" />
<path fill="#343399" opacity="1.00" d=" M 282.67 45.62 C 289.29 42.46 296.97 42.15 304.09 43.45 C 311.01 44.74 317.52 48.96 320.79 55.30 C 324.03 61.53 323.99 68.84 323.04 75.63 C 310.03 75.65 297.01 75.57 283.99 75.68 C 285.12 79.90 288.58 83.19 292.82 84.19 C 299.38 85.69 306.76 84.86 312.29 80.79 C 315.18 84.00 318.08 87.21 320.96 90.44 C 313.54 97.44 302.69 98.96 292.91 97.90 C 285.89 97.20 278.85 94.18 274.39 88.56 C 268.86 81.76 267.64 72.38 269.05 63.95 C 270.31 56.13 275.49 49.03 282.67 45.62 M 284.09 64.27 C 292.51 64.34 300.93 64.33 309.34 64.28 C 308.76 62.49 308.33 60.49 306.79 59.25 C 299.94 53.59 287.09 55.04 284.09 64.27 Z" />
<path fill="#343399" opacity="1.00" d=" M 345.51 43.64 C 355.37 41.29 366.55 42.79 374.50 49.41 C 371.97 52.66 369.42 55.88 366.87 59.10 C 361.56 55.81 354.46 53.78 348.55 56.59 C 345.39 58.24 346.76 63.05 350.03 63.56 C 356.32 64.79 363.07 64.06 368.98 67.01 C 378.38 70.85 380.18 84.54 373.79 91.81 C 368.86 97.93 360.43 99.29 353.01 99.03 C 344.42 98.88 336.10 95.51 329.49 90.08 C 331.71 86.42 333.94 82.77 336.16 79.11 C 342.04 83.77 349.64 86.33 357.15 85.57 C 359.03 85.29 361.00 84.53 362.13 82.92 C 362.94 81.30 362.35 79.13 360.75 78.25 C 358.42 76.79 355.55 76.83 352.92 76.52 C 347.01 76.07 340.81 74.72 336.17 70.80 C 330.94 66.27 330.02 58.06 333.11 52.06 C 335.61 47.45 340.65 44.97 345.51 43.64 Z" />
<path fill="#343399" opacity="1.00" d=" M 398.44 43.66 C 408.31 41.28 419.53 42.78 427.50 49.41 C 424.98 52.66 422.42 55.88 419.87 59.10 C 414.57 55.81 407.49 53.79 401.58 56.57 C 398.41 58.18 399.71 63.01 402.99 63.55 C 409.28 64.80 416.04 64.05 421.97 67.00 C 431.38 70.84 433.19 84.55 426.78 91.82 C 421.85 97.94 413.40 99.30 405.98 99.02 C 397.40 98.87 389.09 95.50 382.49 90.08 C 384.71 86.43 386.93 82.77 389.17 79.12 C 395.02 83.75 402.57 86.30 410.04 85.59 C 412.45 85.26 415.65 83.97 415.51 81.05 C 415.17 77.94 411.61 77.11 409.06 76.84 C 402.38 76.30 395.23 75.55 389.75 71.29 C 384.05 66.89 382.89 58.29 386.11 52.08 C 388.58 47.48 393.60 44.99 398.44 43.66 Z" />
<path fill="#343399" opacity="1.00" d=" M 589.04 45.01 C 595.61 42.35 603.00 42.20 609.88 43.61 C 616.71 45.09 623.04 49.50 626.09 55.89 C 629.03 62.01 628.96 69.05 628.04 75.63 C 615.03 75.65 602.01 75.57 588.99 75.68 C 590.11 79.87 593.54 83.16 597.75 84.17 C 604.33 85.69 611.74 84.88 617.28 80.79 C 620.18 83.99 623.07 87.21 625.96 90.43 C 618.83 97.19 608.46 98.84 599.01 98.01 C 591.63 97.47 584.11 94.50 579.42 88.59 C 573.86 81.79 572.63 72.39 574.05 63.94 C 575.37 55.61 581.20 48.16 589.04 45.01 M 589.09 64.27 C 597.51 64.34 605.92 64.33 614.34 64.28 C 613.75 62.49 613.33 60.49 611.78 59.24 C 604.93 53.59 592.09 55.04 589.09 64.27 Z" />
<path fill="#343399" opacity="1.00" d=" M 684.44 43.76 C 693.72 41.86 704.26 43.05 711.74 49.29 C 724.47 59.50 724.66 81.55 711.99 91.89 C 705.10 97.63 695.58 98.96 686.93 97.84 C 679.78 96.98 672.87 93.38 668.59 87.51 C 663.39 80.63 662.38 71.30 664.30 63.07 C 666.56 53.45 674.80 45.73 684.44 43.76 M 687.43 57.56 C 678.99 60.60 676.69 72.37 681.68 79.31 C 685.45 85.11 694.00 85.76 699.70 82.64 C 707.62 77.55 707.58 64.37 700.03 58.95 C 696.38 56.49 691.54 56.29 687.43 57.56 Z" />
<path fill="#343399" opacity="1.00" d=" M 737.31 76.28 C 738.52 74.43 741.87 75.88 741.49 77.98 C 741.87 79.72 739.44 81.19 738.03 80.32 C 736.52 79.63 735.69 77.34 737.31 76.28 Z" />
<path fill="#343399" opacity="1.00" d=" M 736.74 82.00 C 738.24 82.00 739.75 82.00 741.26 82.00 C 741.26 87.00 741.26 92.00 741.26 97.00 C 739.75 97.00 738.24 97.00 736.74 97.00 C 736.73 92.00 736.73 87.00 736.74 82.00 Z" />
<path fill="#343399" opacity="1.00" d=" M 744.74 81.80 C 746.39 82.03 748.19 82.03 749.52 83.21 C 753.21 79.95 759.75 81.99 760.00 87.21 L 760.00 97.01 C 758.57 97.00 757.14 96.99 755.73 96.99 C 755.65 93.61 756.14 90.11 755.24 86.81 C 753.72 84.71 750.68 85.33 749.59 87.47 C 748.89 90.58 749.33 93.83 749.28 97.00 C 747.76 97.00 746.24 97.00 744.74 97.00 C 744.73 91.93 744.73 86.86 744.74 81.80 Z" />
<path fill="#343399" opacity="1.00" d=" M 730.42 92.40 C 733.25 91.45 734.92 96.27 731.92 97.04 C 728.82 98.69 726.93 92.96 730.42 92.40 Z" />
</g>
<g id="#f0bf00ff">
<path fill="#f0bf00" opacity="1.00" d=" M 46.37 25.95 C 52.78 28.82 59.20 31.86 64.85 36.09 C 77.52 45.14 85.17 60.47 85.46 75.97 C 85.49 83.65 85.68 91.32 85.79 99.00 C 67.32 99.00 48.86 99.00 30.39 99.00 C 35.53 90.25 40.61 81.47 45.68 72.69 C 38.31 71.21 31.72 75.64 26.87 80.70 C 23.20 76.98 17.82 74.21 16.49 68.77 C 15.68 64.85 18.86 61.83 21.19 59.16 C 28.44 51.43 35.45 43.47 42.67 35.71 C 43.92 35.77 45.17 35.83 46.42 35.88 C 46.43 32.57 46.40 29.26 46.37 25.95 Z" />
</g>
</svg>
